# xmcd CD database file
#
# Track frame offsets:
#	164
#	21720
#	39511
#	66510
#	86046
#	112904
#	136519
#	174080
#	202182
#	228310
#	260011
#	287052
#
# Disc length: 4050 seconds
#
# Revision: 0
# Processed by: cddbd v1.5.1PL0 Copyright (c) Steve Scherf et al.
# Submitted via: CDex 1.51
#
DISCID=ab0fd00c
DTITLE=Steve Abshire and Vince Lewis - Two In The Pocket
DYEAR=2003
DGENRE=Jazz
TTITLE0=Undecided
TTITLE1=Bernie's Tune
TTITLE2=Tea for Two
TTITLE3=Three Little Words
TTITLE4=Someone to Light Up My Life
TTITLE5=Show Me
TTITLE6=This Masquerade
TTITLE7=If I Had You
TTITLE8=Blues In the Closed
TTITLE9=I Can't Give You Anything But Love
TTITLE10=Samba D'Samba
TTITLE11=Nagasaki
EXTD=YEAR: 2003
EXTT0=
EXTT1=
EXTT2=
EXTT3=
EXTT4=
EXTT5=
EXTT6=
EXTT7=
EXTT8=
EXTT9=
EXTT10=
EXTT11=
PLAYORDER=
